<svg xmlns="http://www.w3.org/2000/svg" xmlns:svg="http://www.w3.org/2000/svg" id="svg1468" width="48" height="36" version="1.1" viewBox="0 0 48 36"><metadata id="metadata1465"/><g id="layer1"><path id="rect840" style="fill:none;stroke:#45bed9;stroke-width:1.693;stroke-linecap:round;stroke-linejoin:miter;stroke-miterlimit:4;stroke-dasharray:none;stroke-opacity:1;paint-order:markers stroke fill;fill-opacity:1" d="M 3.6253509,19.530013 H 36.050515 l 9.093423,11.772725 H 12.718775 Z"/><path style="fill:#fee026;stroke:#ffe431;stroke-width:1px;stroke-linecap:butt;stroke-linejoin:miter;stroke-opacity:1;fill-opacity:1" id="path60" d="M 3.7244401,31.466515 6.0756238,27.49014 8.4561063,31.454927 Z"/><path style="fill:#fee026;stroke:#ffe431;stroke-width:1px;stroke-linecap:butt;stroke-linejoin:miter;stroke-opacity:1;fill-opacity:1" id="path60-3" d="M 45.739432,19.485232 43.388248,23.461607 41.007766,19.49682 Z"/><path style="fill:none;stroke:#45bed9;stroke-width:1px;stroke-linecap:square;stroke-linejoin:miter;stroke-opacity:1" id="path1451" d="M 29.955476,31.271022 20.862053,19.498297"/><path style="fill:none;stroke:#45bed9;stroke-width:1px;stroke-linecap:butt;stroke-linejoin:miter;stroke-opacity:1" id="path1453" d="m 7.2849964,24.982263 33.6691166,0.01739"/><g id="g2115" transform="translate(0.979908,-4.2870995)" style="stroke:#ffe431;stroke-width:2;stroke-linecap:round;stroke-linejoin:round;stroke-miterlimit:4;stroke-dasharray:none;stroke-opacity:1"><path id="path2080" d="m 12.121831,29.610096 c 0,0 -7.386741,-4.671956 -2.7147855,-8.270624 4.7262585,-3.640496 6.0609155,-5.42957 1.7677675,-8.649432" style="fill:none;stroke:#ffe431;stroke-width:2;stroke-linecap:round;stroke-linejoin:round;stroke-miterlimit:4;stroke-dasharray:none;stroke-opacity:1"/><path style="fill:none;stroke:#ffe431;stroke-width:2;stroke-linecap:round;stroke-linejoin:round;stroke-miterlimit:4;stroke-dasharray:none;stroke-opacity:1" id="path2080-8" d="m 23.91141,29.610096 c 0,0 -7.386741,-4.671956 -2.714785,-8.270624 4.726258,-3.640496 6.060915,-5.42957 1.767767,-8.649432"/><path id="path2080-8-7" d="m 35.46503,29.610096 c 0,0 -7.386741,-4.671956 -2.714785,-8.270624 4.726258,-3.640496 6.060915,-5.42957 1.767767,-8.649432" style="fill:none;stroke:#ffe431;stroke-width:2;stroke-linecap:round;stroke-linejoin:round;stroke-miterlimit:4;stroke-dasharray:none;stroke-opacity:1"/></g></g></svg>