<svg xmlns="http://www.w3.org/2000/svg" xmlns:svg="http://www.w3.org/2000/svg" id="svg5" width="32" height="32" version="1.1" viewBox="0 0 32 32"><g id="layer3" style="fill:gray"><rect style="fill:gray" id="rect1288" width="32" height="32" x="0" y="0"/></g><g id="layer1"><g id="layer4-1"><path style="display:inline;fill:none;fill-rule:evenodd;stroke:#595959;stroke-width:5;stroke-linecap:round;stroke-dasharray:none;stroke-dashoffset:0;stroke-opacity:1" id="full-shadow" d="m 16.5,4.5 a 12,12 0 0 1 12,12"/></g><g id="layer5-2"><circle style="fill:none;fill-rule:evenodd;stroke:#595959;stroke-width:5;stroke-linecap:round;stroke-dasharray:0,6.285;stroke-dashoffset:0;stroke-opacity:1" id="dots-shadow" cx="16.5" cy="16.5" r="12"/></g><g id="layer6-1"><path style="fill:#595959;fill-opacity:1;stroke:#595959;stroke-width:2;stroke-linecap:butt;stroke-linejoin:round;stroke-opacity:1;stroke-dasharray:none" id="hand-shadow" d="m 16,15 c -1.5,1.566667 -1.5,1.5 0,3 0.5,0.5 0.5,0.5 9,-1.5 -8.5,-2 -8.5,-2 -9,-1.5 z"/></g></g><g id="layer2"><g id="layer4"><path style="display:inline;fill:none;fill-rule:evenodd;stroke:#fff;stroke-width:4;stroke-linecap:round;stroke-dasharray:none;stroke-dashoffset:0;stroke-opacity:1" id="full-white" d="m 15.5,3.5 a 12,12 0 0 1 12,12"/></g><g id="layer5"><circle style="display:inline;fill:none;fill-rule:evenodd;stroke:#fff;stroke-width:4;stroke-linecap:round;stroke-dasharray:0,6.284;stroke-dashoffset:0;stroke-opacity:1" id="dots-white" cx="15.5" cy="15.5" r="12"/></g><g id="layer6"><path style="fill:#fff;stroke:#fff;stroke-width:1px;stroke-linecap:butt;stroke-linejoin:round;stroke-opacity:1" id="hand-white" d="m 15,14 c -1.5,1.566667 -1.5,1.5 0,3 0.5,0.5 0.5,0.5 9,-1.5 -8.5,-2 -8.5,-2 -9,-1.5 z"/></g></g></svg>